<svg id="Layer_1" data-name="Layer 1" xmlns="http://www.w3.org/2000/svg" viewBox="0 0 524.3 65"><defs><style>.cls-1{fill:#5c0813;}.cls-2{fill:#99979b;}</style></defs><title>Artboard 2</title><path class="cls-1" d="M29.28,46.26H16.46v18H.16V.19H28.83c16.94,0,26.65,8.06,26.65,22.35,0,9.8-4.12,16.85-11.63,20.6L57.31,64.3H38.81Zm-.45-12.82C35.88,33.44,40,29.86,40,23.09S35.88,13,28.83,13H16.46V33.44Z"/><path class="cls-1" d="M79.11,13V25.74h30.6V38.57H79.11V51.48H114V64.3H62.81V.19H113V13Z"/><path class="cls-1" d="M151.2.19c14.38,0,23.54,6.23,23.54,16,0,6.77-4.21,12.18-11,14.1,8.06,1.56,13.19,7.88,13.19,16.21,0,10.9-9.52,17.77-24.64,17.77H120.88V.19ZM137.1,25.83h13.19c4.76,0,7.78-2.56,7.78-6.68s-3-6.51-7.78-6.51H137.1Zm0,25.93h13.19c6,0,9.8-2.66,9.8-7.24,0-4.31-3.76-7-9.8-7H137.1Z"/><path class="cls-1" d="M199,13V25.74h30.59V38.57H199V51.48h34.9V64.3H182.71V.19h50.2V13Z"/><path class="cls-1" d="M286.13,50.66V64.3H242.62V.19h16.3V50.66Z"/><path class="cls-2" d="M348.05,9.35l-4.4,5.58a27,27,0,0,0-19-8.06c-14.47,0-26.11,11.18-26.11,25.28s11.64,25.28,26.11,25.28a28,28,0,0,0,19-7.69l4.49,5c-6.32,5.95-14.93,9.89-23.82,9.89-18.5,0-33.15-14.38-33.15-32.52C291.17,14.2,306,0,324.6,0A34.69,34.69,0,0,1,348.05,9.35Z"/><path class="cls-2" d="M403.65,64.3V36.09H365V64.3h-7.32V.19H365V29.13h38.66V.19H411V64.3Z"/><path class="cls-2" d="M432.23,7.24V28.31h32.33v7.05H432.23v22H469.6v7H424.9V.19h43.51V7.24Z"/><path class="cls-2" d="M488.19,7.24V29.77h29.95v7.06H488.19V64.3h-7.32V.19h40.75V7.24Z"/></svg>