<svg id="Layer_1" data-name="Layer 1" xmlns="http://www.w3.org/2000/svg" viewBox="0 0 423.57 185.68"><defs><style>.cls-1{fill:#611327;}.cls-2{fill:#464647;}</style></defs><title>Artboard 1</title><path class="cls-1" d="M116.17,74.86,106,67.32l.37-.51a5.19,5.19,0,0,0-1.09-7.26L95,52l.82-1.12a5.19,5.19,0,0,0-1.1-7.26L80.33,33a5.2,5.2,0,0,0-7.26,1.1l-.82,1.12L62,27.7a5.19,5.19,0,0,0-7.26,1.1L42.4,45.56l-3.57-1.92a5.21,5.21,0,0,0-7.23,2.55L17,80.66a5.17,5.17,0,0,0,.49,5l26.81,39.21L40,156.46a5.19,5.19,0,0,0,4.45,5.84,5.62,5.62,0,0,0,.7,0,5.19,5.19,0,0,0,5.14-4.5l4.52-33.62a5.17,5.17,0,0,0-.86-3.62L27.64,82.1l11.3-26.62L68.06,71.06l-3.67,5L54.16,68.5A5.19,5.19,0,1,0,48,76.86L62.41,87.48h0L76.8,98.1h0l14.41,10.62a5.18,5.18,0,0,0,3.07,1,5.28,5.28,0,0,0,2.48-.63l-.71,5.81-10,10.8a5.23,5.23,0,0,0-1.37,3.8l1.52,28a5.2,5.2,0,0,0,5.18,4.92h.28A5.2,5.2,0,0,0,96.61,157l-1.4-25.81,9.61-10.43a5.17,5.17,0,0,0,1.34-2.89l3-24.68,8.13-11a5.19,5.19,0,0,0-1.1-7.26ZM60,39.14l6,4.45L58.35,54.08l-6.69-3.57ZM67.6,59,78.35,44.45l6,4.46-10.1,13.7ZM80.43,71.79h0l.77-1,7.64-10.38,6,4.45-.36.48,0,0L78.79,86.66l-6-4.45ZM93.19,97.28l-6-4.46L99.79,75.68l6,4.46-5.91,8h0Zm0,0"/><path class="cls-1" d="M160.69,71.15H148.45V88.36H132.9V27.18h27.36c16.16,0,25.43,7.69,25.43,21.33,0,9.35-3.93,16.08-11.1,19.66l12.85,20.19H169.78Zm-.43-12.24c6.72,0,10.66-3.41,10.66-9.88s-3.94-9.61-10.66-9.61H148.45V58.91Z"/><path class="cls-1" d="M208.24,39.42V51.57h29.19V63.8H208.24V76.13h33.3V88.36H192.68V27.18h47.9V39.42Z"/><path class="cls-1" d="M277,27.18c13.72,0,22.46,6,22.46,15.3,0,6.47-4,11.62-10.49,13.46,7.69,1.48,12.59,7.51,12.59,15.47,0,10.4-9.09,17-23.51,17h-30V27.18ZM263.57,51.65h12.58c4.55,0,7.43-2.44,7.43-6.38s-2.88-6.2-7.43-6.2H263.57Zm0,24.74h12.58c5.77,0,9.36-2.53,9.36-6.91,0-4.1-3.59-6.64-9.36-6.64H263.57Z"/><path class="cls-1" d="M322.65,39.42V51.57h29.2V63.8h-29.2V76.13H356V88.36H307.1V27.18H355V39.42Z"/><path class="cls-1" d="M405.77,75.34v13H364.26V27.18h15.56V75.34Z"/><path class="cls-2" d="M187.17,109.62,183,115a25.69,25.69,0,0,0-18.09-7.7c-13.81,0-24.91,10.67-24.91,24.13s11.1,24.12,24.91,24.12A26.7,26.7,0,0,0,183,148.17l4.28,4.81a33.78,33.78,0,0,1-22.72,9.44c-17.66,0-31.64-13.73-31.64-31,0-17.13,14.16-30.68,31.9-30.68A33.08,33.08,0,0,1,187.17,109.62Z"/><path class="cls-2" d="M240.23,162.07V135.15H203.35v26.92h-7V100.88h7V128.5h36.88V100.88h7v61.19Z"/><path class="cls-2" d="M267.5,107.61v20.11h30.85v6.73H267.5v21h35.66v6.65H260.51V100.88H302v6.73Z"/><path class="cls-2" d="M320.9,107.61v21.51h28.58v6.73H320.9v26.22h-7V100.88H352.8v6.73Z"/></svg>