<svg id="Layer_1" data-name="Layer 1" xmlns="http://www.w3.org/2000/svg" viewBox="0 0 397.13 397.13"><defs><style>.cls-1{fill:#f1f2f2;}.cls-2{fill:#611327;}</style></defs><title>RC_LogoFist</title><circle class="cls-1" cx="198.56" cy="198.56" r="189.66"/><path class="cls-2" d="M198.56,397.13C89.08,397.13,0,308.05,0,198.56S89.08,0,198.56,0,397.13,89.08,397.13,198.56,308.05,397.13,198.56,397.13Zm0-379.33C98.89,17.8,17.8,98.89,17.8,198.56S98.89,379.33,198.56,379.33s180.77-81.09,180.77-180.76S298.24,17.8,198.56,17.8Z"/><path class="cls-2" d="M300.51,157.38l-21.38-15.77.78-1.07a10.86,10.86,0,0,0-2.29-15.18L256.25,109.6l1.72-2.34a10.86,10.86,0,0,0-2.3-15.18l-30.12-22.2a10.86,10.86,0,0,0-15.18,2.29l-1.72,2.35L187.27,58.75A10.86,10.86,0,0,0,172.09,61L146.24,96.1l-7.47-4a10.85,10.85,0,0,0-15.11,5.33L93.06,169.51a10.88,10.88,0,0,0,1,10.37l56.06,82L141.26,328a10.86,10.86,0,0,0,9.31,12.21,11.19,11.19,0,0,0,1.46.1,10.85,10.85,0,0,0,10.75-9.41l9.46-70.31a10.86,10.86,0,0,0-1.8-7.58l-55.06-80.54L139,116.85l60.91,32.58-7.69,10.43-21.38-15.77a10.86,10.86,0,0,0-12.89,17.48l30.13,22.21h0L218.18,206h0l30.12,22.2a10.81,10.81,0,0,0,11.61.8l-1.47,12.14-20.83,22.61a10.88,10.88,0,0,0-2.86,7.95l3.17,58.54a10.85,10.85,0,0,0,10.83,10.27h.59a10.85,10.85,0,0,0,10.26-11.42l-2.91-54,20.1-21.81a10.86,10.86,0,0,0,2.8-6.06l6.24-51.62,17-23a10.85,10.85,0,0,0-2.3-15.18ZM183.12,82.67,195.76,92l-16.18,21.94-14-7.48Zm15.81,41.61,22.48-30.49,12.64,9.32-21.13,28.66ZM225.76,151h0l1.61-2.18,16-21.7L256,136.39l-.74,1-.06.06-32.87,44.6-12.64-9.32Zm26.7,53.31L239.81,195l26.44-35.86,12.64,9.32-12.36,16.75h0Zm0,0"/></svg>