<svg id="Layer_1" data-name="Layer 1" xmlns="http://www.w3.org/2000/svg" viewBox="0 0 317.76 83.95"><defs><style>.cls-1,.cls-2,.cls-3{fill:#f1f2f2;}.cls-2,.cls-3{stroke:#611327;stroke-width:2px;}.cls-2{stroke-linecap:round;stroke-miterlimit:10;}.cls-3{stroke-miterlimit:20;}.cls-4{fill:#611327;}.cls-5{fill:#464647;}</style></defs><title>RebelChef</title><polygon class="cls-1" points="309.27 14.79 278.74 14.79 277.1 22.5 277.1 24.2 278.74 24.81 278.74 38.06 309.27 38.06 309.27 14.79"/><polygon class="cls-1" points="275.93 25.17 270.43 15.32 280.28 20.82 275.93 25.17"/><polygon class="cls-1" points="282.49 19.37 283.05 9.21 287.91 18.15 282.49 19.37"/><polygon class="cls-1" points="291.27 13.28 294.36 1.46 297.93 13.14 291.27 13.28"/><polygon class="cls-1" points="277.95 20.55 273.78 5.54 286.78 16.08 277.95 20.55"/><polygon class="cls-1" points="285.38 15.11 289.44 0 294.61 15.09 285.38 15.11"/><polygon class="cls-1" points="311.81 25.17 316.76 16.29 307.88 21.25 308.28 24.81 311.81 25.17"/><polygon class="cls-1" points="304.7 19.37 304.14 9.21 299.29 18.15 304.7 19.37"/><polygon class="cls-1" points="303.12 14.29 302.56 4.13 297.7 13.07 303.12 14.29"/><polygon class="cls-1" points="309.24 20.55 313.41 5.54 300.41 16.08 309.24 20.55"/><polygon class="cls-1" points="299.5 16.77 297.75 6.61 295.88 16.74 299.5 16.77"/><polyline class="cls-2" points="316.76 24.15 316.76 67.14 273.78 67.14 273.78 24.15"/><rect class="cls-3" x="1" y="24.15" width="272.78" height="42.98"/><path class="cls-4" d="M24.74,52.31H18.51v8.78H10.58V29.9H24.52c8.24,0,13,3.92,13,10.87,0,4.77-2,8.2-5.66,10l6.55,10.29h-9Zm-.22-6.24C28,46.07,30,44.33,30,41s-2-4.9-5.43-4.9h-6v9.93Z"/><path class="cls-4" d="M49,36.14v6.19H63.86v6.24H49v6.28H66v6.24H41.05V29.9H65.46v6.24Z"/><path class="cls-4" d="M84,29.9c7,0,11.45,3,11.45,7.8a7,7,0,0,1-5.35,6.86,7.68,7.68,0,0,1,6.42,7.89c0,5.3-4.63,8.64-12,8.64H69.3V29.9ZM77.18,42.37H83.6c2.32,0,3.79-1.25,3.79-3.25S85.91,36,83.6,36H77.18Zm0,12.61H83.6c2.94,0,4.77-1.29,4.77-3.52s-1.83-3.39-4.77-3.39H77.18Z"/><path class="cls-4" d="M107.3,36.14v6.19h14.88v6.24H107.3v6.28h17v6.24H99.37V29.9h24.41v6.24Z"/><path class="cls-4" d="M149.66,54.44v6.64H128.5V29.9h7.93V54.44Z"/><path class="cls-5" d="M179.78,34.35l-2.14,2.72a13.1,13.1,0,0,0-9.22-3.92,12.3,12.3,0,1,0,0,24.59A13.6,13.6,0,0,0,177.64,54l2.18,2.45a17.22,17.22,0,0,1-11.58,4.81,15.86,15.86,0,0,1-16.13-15.82c0-8.73,7.22-15.64,16.26-15.64A16.86,16.86,0,0,1,179.78,34.35Z"/><path class="cls-5" d="M206.82,61.08V47.36H188V61.08h-3.56V29.9H188V44h18.8V29.9h3.56V61.08Z"/><path class="cls-5" d="M220.72,33.33V43.58h15.73V47H220.72V57.7H238.9v3.39H217.16V29.9h21.16v3.43Z"/><path class="cls-5" d="M247.94,33.33v11h14.57v3.43H247.94V61.08h-3.56V29.9H264.2v3.43Z"/><path class="cls-4" d="M312.31,26.22l-3.54-2.61.13-.18a1.8,1.8,0,0,0-.38-2.51L305,18.32l.29-.39a1.8,1.8,0,0,0-.38-2.51l-5-3.67a1.8,1.8,0,0,0-2.51.38l-.29.39L293.57,9.9a1.8,1.8,0,0,0-2.51.38l-4.28,5.8-1.24-.66a1.8,1.8,0,0,0-2.5.88L278,28.23a1.8,1.8,0,0,0,.17,1.72l9.28,13.57-1.47,11a1.8,1.8,0,0,0,1.54,2l.24,0a1.8,1.8,0,0,0,1.78-1.56l1.57-11.64a1.8,1.8,0,0,0-.3-1.25l-9.11-13.33,3.91-9.21,10.08,5.39-1.27,1.73L290.85,24a1.8,1.8,0,0,0-2.13,2.89l5,3.68h0l5,3.67h0l5,3.67a1.79,1.79,0,0,0,1.92.13l-.24,2-3.45,3.74a1.8,1.8,0,0,0-.47,1.32l.52,9.69a1.8,1.8,0,0,0,1.79,1.7h.1a1.8,1.8,0,0,0,1.7-1.89l-.48-8.93,3.33-3.61a1.8,1.8,0,0,0,.46-1l1-8.54,2.81-3.81a1.8,1.8,0,0,0-.38-2.51ZM292.88,13.86,295,15.4,292.3,19,290,17.8Zm2.62,6.89,3.72-5,2.09,1.54L297.82,22Zm4.44,4.42h0l.27-.36,2.65-3.59,2.09,1.54-.12.17h0l-5.44,7.38-2.09-1.54ZM304.36,34l-2.09-1.54,4.38-5.93,2.09,1.54-2,2.77h0Zm0,0"/></svg>