<svg id="Layer_1" data-name="Layer 1" xmlns="http://www.w3.org/2000/svg" viewBox="0 0 1114.33 237.5"><defs><style>.cls-1,.cls-2,.cls-3{fill:#f1f2f2;}.cls-2,.cls-3{stroke:#611327;stroke-width:2px;}.cls-2{stroke-linecap:round;stroke-miterlimit:10;}.cls-3{stroke-miterlimit:20;}.cls-4{fill:#611327;}.cls-5{fill:#464647;}</style></defs><title>RC_FullLogo-noTag</title><polygon class="cls-1" points="1086.94 52.09 979.39 52.09 973.61 79.26 973.61 85.26 979.39 87.41 979.39 134.08 1086.94 134.08 1086.94 52.09"/><polygon class="cls-1" points="969.47 88.68 950.09 53.97 984.8 73.34 969.47 88.68"/><polygon class="cls-1" points="992.59 68.24 994.55 32.44 1011.67 63.94 992.59 68.24"/><polygon class="cls-1" points="1023.51 46.77 1034.4 5.16 1046.98 46.3 1023.51 46.77"/><polygon class="cls-1" points="976.59 72.38 961.91 19.52 1007.7 56.65 976.59 72.38"/><polygon class="cls-1" points="1002.76 53.24 1017.06 0 1035.29 53.15 1002.76 53.24"/><polygon class="cls-1" points="1095.86 88.68 1113.33 57.38 1082.02 74.85 1083.44 87.38 1095.86 88.68"/><polygon class="cls-1" points="1070.83 68.24 1068.87 32.44 1051.75 63.94 1070.83 68.24"/><polygon class="cls-1" points="1065.26 50.34 1063.3 14.55 1046.18 46.04 1065.26 50.34"/><polygon class="cls-1" points="1086.83 72.38 1101.51 19.52 1055.72 56.65 1086.83 72.38"/><polygon class="cls-1" points="1052.51 59.06 1046.35 23.3 1039.78 58.98 1052.51 59.06"/><polyline class="cls-2" points="1113.33 85.08 1113.33 236.5 961.91 236.5 961.91 85.08"/><rect class="cls-3" x="1" y="85.08" width="960.91" height="151.42"/><path class="cls-4" d="M84.64,184.26h-22v30.92H34.74V105.32H83.86c29,0,45.67,13.81,45.67,38.29,0,16.79-7.06,28.88-19.93,35.31l23.07,36.25H101Zm-.78-22c12.08,0,19.14-6.12,19.14-17.73,0-11.46-7.06-17.26-19.14-17.26H62.67v35Z"/><path class="cls-4" d="M170,127.29V149.1h52.41v22H170V193.2h59.79v22H142.08V105.32h86v22Z"/><path class="cls-4" d="M293.52,105.32c24.64,0,40.33,10.67,40.33,27.46,0,11.61-7.22,20.87-18.83,24.17,13.81,2.67,22.6,13.5,22.6,27.78,0,18.68-16.32,30.45-42.21,30.45H241.58V105.32Zm-24.16,43.94H292c8.16,0,13.34-4.39,13.34-11.46s-5.18-11.14-13.34-11.14h-22.6Zm0,44.41H292c10.36,0,16.79-4.55,16.79-12.4,0-7.38-6.44-11.93-16.79-11.93h-22.6Z"/><path class="cls-4" d="M375.45,127.29V149.1h52.42v22H375.45V193.2h59.79v22H347.51V105.32h86v22Z"/><path class="cls-4" d="M524.69,191.79v23.38H450.15V105.32h27.94v86.47Z"/><path class="cls-5" d="M630.78,121l-7.53,9.57a46.14,46.14,0,0,0-32.49-13.81C566,116.78,546,135.92,546,160.09c0,24,19.93,43.31,44.72,43.31a47.9,47.9,0,0,0,32.49-13.18l7.69,8.63c-10.83,10.2-25.58,16.95-40.8,16.95-31.7,0-56.81-24.64-56.81-55.71,0-30.76,25.42-55.08,57.28-55.08A59.38,59.38,0,0,1,630.78,121Z"/><path class="cls-5" d="M726,215.17V166.84H659.81v48.34H647.26V105.32h12.55v49.59H726V105.32h12.55V215.17Z"/><path class="cls-5" d="M775,117.4v36.1h55.4v12.08H775v37.66h64v11.93H762.45V105.32H837V117.4Z"/><path class="cls-5" d="M870.89,117.4V156h51.32v12.08H870.89v47.08H858.34V105.32h69.83V117.4Z"/><path class="cls-4" d="M1097.64,92.38l-12.46-9.19.46-.62a6.33,6.33,0,0,0-1.33-8.85l-12.46-9.19,1-1.36a6.33,6.33,0,0,0-1.34-8.85l-17.56-12.95a6.33,6.33,0,0,0-8.85,1.34l-1,1.37-12.46-9.19a6.33,6.33,0,0,0-8.85,1.34L1007.7,56.65l-4.36-2.33a6.33,6.33,0,0,0-8.81,3.11l-17.84,42a6.34,6.34,0,0,0,.6,6L1010,153.3l-5.19,38.58a6.33,6.33,0,0,0,5.43,7.12,6.53,6.53,0,0,0,.85.06,6.33,6.33,0,0,0,6.26-5.49l5.51-41a6.33,6.33,0,0,0-1.05-4.42l-32.1-47,13.78-32.46,35.51,19-4.48,6.08L1022,84.63a6.33,6.33,0,0,0-7.51,10.19l17.56,12.95h0l17.55,12.94h0l17.56,12.95a6.3,6.3,0,0,0,6.77.47l-.86,7.08L1061,154.39a6.34,6.34,0,0,0-1.67,4.63l1.85,34.13a6.33,6.33,0,0,0,6.31,6h.35a6.33,6.33,0,0,0,6-6.66l-1.7-31.47,11.72-12.71a6.33,6.33,0,0,0,1.63-3.53l3.64-30.09,9.9-13.44a6.33,6.33,0,0,0-1.34-8.85ZM1029.2,48.82l7.37,5.43L1027.14,67,1019,62.69Zm9.22,24.26,13.11-17.78,7.37,5.43-12.32,16.71Zm15.64,15.55h0l.94-1.27,9.33-12.65,7.37,5.43-.43.59,0,0-19.16,26-7.37-5.43Zm15.57,31.08-7.37-5.43,15.41-20.91,7.37,5.44-7.2,9.77h0Zm0,0"/></svg>